# xmcd CD database file
#
# Track frame offsets:
#	150
#	17325
#	31390
#	42175
#	55270
#	69020
#	78890
#	94210
#	106742
#	117490
#	131330
#	144302
#
# Disc length: 2109 seconds
#
# Revision: 0
# Processed by: cddbd v1.5.2PL0 Copyright (c) Steve Scherf et al.
# Submitted via: CDex 1.70beta2
#
DISCID=8c083b0c
DTITLE=Varios - 3- Grandes Classicos da Musica Sertaneja
DYEAR=2009
DGENRE=Country
TTITLE0=01 - Ferreirinha
TTITLE1=02 - Seresteiro Da Lua
TTITLE2=03 - Pai Joao e Mae Maria
TTITLE3=04 - Lagrimas de Quem Ama
TTITLE4=05 - Piracicaba
TTITLE5=06 - Bendita Hora
TTITLE6=07 - Fuscao Preto
TTITLE7=08 - Mariazinha Criminosa
TTITLE8=09 - Onde Esta a Felicidade
TTITLE9=10 - Velho Sozinho
TTITLE10=11 - A Grande Verdade
TTITLE11=12 - Esqueca Coracao
EXTD=YEAR: 2009
EXTT0=
EXTT1=
EXTT2=
EXTT3=
EXTT4=
EXTT5=
EXTT6=
EXTT7=
EXTT8=
EXTT9=
EXTT10=
EXTT11=
PLAYORDER=
